<svg width="420" height="88" viewBox="0 0 420 88" fill="none" xmlns="http://www.w3.org/2000/svg">
  <defs>
    <radialGradient id="virgilGlowDark" cx="0" cy="0" r="1" gradientUnits="userSpaceOnUse" gradientTransform="translate(58 47) rotate(90) scale(24 24)">
      <stop offset="0" stop-color="#F8E27A" stop-opacity="0.72"/>
      <stop offset="1" stop-color="#F8E27A" stop-opacity="0"/>
    </radialGradient>
    <linearGradient id="virgilPostDark" x1="0" y1="0" x2="1" y2="1">
      <stop offset="0" stop-color="#2B7C79"/>
      <stop offset="1" stop-color="#57A8A6"/>
    </linearGradient>
  </defs>

  <circle cx="58" cy="47" r="24" fill="url(#virgilGlowDark)"/>

  <rect x="20" y="18" width="8" height="54" rx="4" fill="url(#virgilPostDark)"/>
  <circle cx="24" cy="14" r="4" fill="url(#virgilPostDark)"/>
  <path d="M24 30C31 20 43 18 58 18H76" stroke="url(#virgilPostDark)" stroke-width="8" stroke-linecap="round"/>
  <path d="M51 34H66C68 34 70 35 71 37L74 42H43L46 37C47 35 49 34 51 34Z" fill="url(#virgilPostDark)"/>
  <rect x="49" y="42" width="17" height="20" rx="8.5" fill="#F7F9FB"/>
  <path d="M20 72H28L30 86H18L20 72Z" fill="url(#virgilPostDark)"/>
  <ellipse cx="24" cy="86" rx="14" ry="2.5" fill="#2A3F55"/>

  <text x="104" y="58" fill="#F7FBFF" font-family="Inter, system-ui, -apple-system, Segoe UI, sans-serif" font-size="52" font-weight="700" letter-spacing="-1.4">
    Virgil St.
  </text>
</svg>
